<?xml version="1.0" encoding="utf-8"?>
<!-- Generator: Adobe Illustrator 22.0.1, SVG Export Plug-In . SVG Version: 6.00 Build 0)  -->
<svg version="1.1" id="Layer_1" xmlns="http://www.w3.org/2000/svg" xmlns:xlink="http://www.w3.org/1999/xlink" x="0px" y="0px"
	 viewBox="0 0 200 200" style="enable-background:new 0 0 200 200;" xml:space="preserve">
<style type="text/css">
	.st0{fill:none;stroke:#000000;stroke-width:2;stroke-miterlimit:10;}
	.st1{fill:#FB8A84;}
</style>
<path class="st0" d="M0.8,99.2"/>
<path class="st0" d="M354.8,109.6"/>
<path class="st0" d="M73,109.6"/>
<g>
	<g>
		<path class="st1" d="M100.4,175.2c-41.4,0-75-33.6-75-75s33.6-75,75-75s75,33.6,75,75S141.6,175.2,100.4,175.2z M100.4,31.6
			c-37.8,0-68.6,30.8-68.6,68.6s30.8,68.6,68.6,68.6S169,138,169,100.2S138.2,31.6,100.4,31.6z"/>
	</g>
</g>
<g>
	<polygon class="st1" points="94.8,123.6 69.6,100.4 74.8,94.6 94.4,113 125.4,78.4 131,83.4 	"/>
</g>
</svg>
